# xmcd CD database file
#
# Track frame offsets:
#	150
#	13204
#	27104
#	40321
#	52483
#	67006
#	80023
#	92474
#	105100
#	118673
#	129938
#	141071
#	152881
#	167945
#	183066
#	194380
#	209159
#	221644
#
# Disc length: 3128 seconds
#
# Revision: 0
# Processed by: cddbd v1.4PL0 Copyright (c) Steve Scherf et al.
# Submitted via: CDex 1.50beta9
#
DISCID=050c3612
DTITLE=Stan Getz - Blue Morning
DYEAR=1950
DGENRE=Jazz
TTITLE0=There's a small hotel
TTITLE1=Wrap your troubles in dreams
TTITLE2=Gone with the wind
TTITLE3=Stardust
TTITLE4=The lady in red
TTITLE5=You stepped out of a dream
TTITLE6=On the Alamo
TTITLE7=Yesterday
TTITLE8=You go to my head
TTITLE9=Strike up the band
TTITLE10=Out of nowhere
TTITLE11=Hershey bar
TTITLE12=What's new?
TTITLE13=Intoit
TTITLE14=Sweetie pie
TTITLE15=I've got you under my skin
TTITLE16=My old flame
TTITLE17=S'wonderful
EXTD=YEAR: 1950
EXTT0=
EXTT1=
EXTT2=
EXTT3=
EXTT4=
EXTT5=
EXTT6=
EXTT7=
EXTT8=
EXTT9=
EXTT10=
EXTT11=
EXTT12=
EXTT13=
EXTT14=
EXTT15=
EXTT16=
EXTT17=
PLAYORDER=
